<svg width="90" height="140" viewBox="0 0 90 140" fill="none" xmlns="http://www.w3.org/2000/svg">
<path d="M45 29.1667C43.5082 29.1667 42.0774 29.7813 41.0225 30.8752C39.9676 31.9692 39.375 33.4529 39.375 35V58.3334C39.375 59.8805 39.9676 61.3642 41.0225 62.4581C42.0774 63.5521 43.5082 64.1667 45 64.1667C46.4918 64.1667 47.9226 63.5521 48.9775 62.4581C50.0324 61.3642 50.625 59.8805 50.625 58.3334V35C50.625 33.4529 50.0324 31.9692 48.9775 30.8752C47.9226 29.7813 46.4918 29.1667 45 29.1667Z" fill="white"/>
<path fill-rule="evenodd" clip-rule="evenodd" d="M0 46.6667C0 34.2899 4.74106 22.42 13.1802 13.6684C21.6193 4.91665 33.0653 0 45 0C56.9347 0 68.3807 4.91665 76.8198 13.6684C85.2589 22.42 90 34.2899 90 46.6667V93.3333C90 105.71 85.2589 117.58 76.8198 126.332C68.3807 135.083 56.9347 140 45 140C33.0653 140 21.6193 135.083 13.1802 126.332C4.74106 117.58 0 105.71 0 93.3333V46.6667ZM78.75 46.6667V93.3333C78.75 102.616 75.1942 111.518 68.8649 118.082C62.5355 124.646 53.9511 128.333 45 128.333C36.0489 128.333 27.4645 124.646 21.1351 118.082C14.8058 111.518 11.25 102.616 11.25 93.3333V46.6667C11.25 37.3841 14.8058 28.4817 21.1351 21.9179C27.4645 15.3542 36.0489 11.6667 45 11.6667C53.9511 11.6667 62.5355 15.3542 68.8649 21.9179C75.1942 28.4817 78.75 37.3841 78.75 46.6667V46.6667Z" fill="white"/>
</svg>
