<svg width="140" height="140" viewBox="0 0 140 140" fill="none" xmlns="http://www.w3.org/2000/svg">
<path d="M123.846 0H16.1538C11.875 0.0191944 7.77653 1.8691 4.75093 5.14684C1.72532 8.42457 0.0177179 12.8646 0 17.5V99.1667C0 103.808 1.70192 108.259 4.73135 111.541C7.76079 114.823 11.8696 116.667 16.1538 116.667H123.846C128.13 116.667 132.239 114.823 135.269 111.541C138.298 108.259 140 103.808 140 99.1667V17.5C139.982 12.8646 138.275 8.42457 135.249 5.14684C132.223 1.8691 128.125 0.0191944 123.846 0ZM129.231 99.1667C129.231 100.714 128.663 102.198 127.654 103.291C126.644 104.385 125.274 105 123.846 105H16.1538C14.7258 105 13.3562 104.385 12.3463 103.291C11.3365 102.198 10.7692 100.714 10.7692 99.1667V17.5C10.7692 15.9529 11.3365 14.4692 12.3463 13.3752C13.3562 12.2812 14.7258 11.6667 16.1538 11.6667H123.846C125.274 11.6667 126.644 12.2812 127.654 13.3752C128.663 14.4692 129.231 15.9529 129.231 17.5V99.1667ZM96.9231 134.167C96.9231 135.714 96.3558 137.197 95.346 138.291C94.3362 139.385 92.9665 140 91.5385 140H48.4615C47.0335 140 45.6639 139.385 44.654 138.291C43.6442 137.197 43.0769 135.714 43.0769 134.167C43.0769 132.62 43.6442 131.136 44.654 130.042C45.6639 128.948 47.0335 128.333 48.4615 128.333H91.5385C92.9665 128.333 94.3362 128.948 95.346 130.042C96.3558 131.136 96.9231 132.62 96.9231 134.167Z" fill="white"/>
</svg>
