<svg width="140" height="140" viewBox="0 0 140 140" fill="none" xmlns="http://www.w3.org/2000/svg">
<path d="M112 56C112 44.8609 107.575 34.178 99.6985 26.3015C91.822 18.425 81.1391 14 70 14C58.8609 14 48.178 18.425 40.3015 26.3015C32.425 34.178 28 44.8609 28 56V133H14C10.287 133 6.72601 131.525 4.10051 128.899C1.475 126.274 0 122.713 0 119V91C0 87.287 1.475 83.726 4.10051 81.1005C6.72601 78.475 10.287 77 14 77V56C14 41.1479 19.9 26.9041 30.402 16.402C40.9041 5.89998 55.1479 0 70 0C84.8521 0 99.0959 5.89998 109.598 16.402C120.1 26.9041 126 41.1479 126 56V77C129.713 77 133.274 78.475 135.899 81.1005C138.525 83.726 140 87.287 140 91V119C140 122.713 138.525 126.274 135.899 128.899C133.274 131.525 129.713 133 126 133H112V56ZM84 70H105V140H84V70ZM35 70H56V140H35V70Z" fill="white"/>
</svg>
