<svg width="80" height="140" viewBox="0 0 80 140" fill="none" xmlns="http://www.w3.org/2000/svg">
<path d="M8.88888 17.5C8.88888 15.1794 9.82539 12.9538 11.4924 11.3128C13.1594 9.67187 15.4203 8.75 17.7778 8.75L62.2222 8.75C64.5797 8.75 66.8406 9.67187 68.5076 11.3128C70.1746 12.9538 71.1111 15.1794 71.1111 17.5L71.1111 122.5C71.1111 124.821 70.1746 127.046 68.5076 128.687C66.8406 130.328 64.5797 131.25 62.2222 131.25L17.7778 131.25C15.4203 131.25 13.1594 130.328 11.4924 128.687C9.8254 127.046 8.88889 124.821 8.88889 122.5L8.88888 17.5ZM-7.64949e-07 122.5C-5.62072e-07 127.141 1.87301 131.592 5.20699 134.874C8.54097 138.156 13.0628 140 17.7778 140L62.2222 140C66.9372 140 71.459 138.156 74.793 134.874C78.127 131.592 80 127.141 80 122.5L80 17.5C80 12.8587 78.127 8.40752 74.793 5.12563C71.459 1.84375 66.9372 -2.92592e-06 62.2222 -2.71982e-06L17.7778 -7.77091e-07C13.0628 -5.70994e-07 8.54096 1.84375 5.20698 5.12563C1.873 8.40752 -5.55752e-06 12.8587 -5.35465e-06 17.5L-7.64949e-07 122.5Z" fill="white"/>
<path d="M55.5556 26.25C54.9662 26.25 54.401 26.0195 53.9843 25.6093C53.5675 25.1991 53.3334 24.6427 53.3334 24.0625L53.3334 19.6875C53.3334 19.1073 53.5675 18.5509 53.9843 18.1407C54.401 17.7305 54.9662 17.5 55.5556 17.5L60 17.5C60.5894 17.5 61.1547 17.7305 61.5714 18.1407C61.9881 18.5509 62.2223 19.1073 62.2223 19.6875L62.2223 24.0625C62.2223 24.6427 61.9881 25.1991 61.5714 25.6093C61.1547 26.0195 60.5894 26.25 60 26.25L55.5556 26.25ZM37.7778 26.25C37.1885 26.25 36.6232 26.0195 36.2065 25.6093C35.7897 25.1991 35.5556 24.6427 35.5556 24.0625L35.5556 19.6875C35.5556 19.1073 35.7897 18.5509 36.2065 18.1407C36.6232 17.7305 37.1885 17.5 37.7778 17.5L42.2223 17.5C42.8116 17.5 43.3769 17.7305 43.7936 18.1407C44.2104 18.5509 44.4445 19.1073 44.4445 19.6875L44.4445 24.0625C44.4445 24.6427 44.2104 25.1991 43.7936 25.6093C43.3769 26.0195 42.8116 26.25 42.2223 26.25L37.7778 26.25ZM37.7778 70C37.1885 70 36.6232 69.7695 36.2065 69.3593C35.7897 68.9491 35.5556 68.3927 35.5556 67.8125L35.5556 63.4375C35.5556 62.8573 35.7897 62.3009 36.2065 61.8907C36.6232 61.4805 37.1885 61.25 37.7778 61.25L42.2223 61.25C42.8116 61.25 43.3769 61.4805 43.7936 61.8907C44.2104 62.3009 44.4445 62.8573 44.4445 63.4375L44.4445 67.8125C44.4445 68.3927 44.2104 68.9491 43.7936 69.3593C43.3769 69.7695 42.8116 70 42.2223 70L37.7778 70ZM37.7778 52.5C37.1885 52.5 36.6232 52.2695 36.2065 51.8593C35.7897 51.4491 35.5556 50.8927 35.5556 50.3125L35.5556 37.1875C35.5556 36.6073 35.7897 36.0509 36.2065 35.6407C36.6232 35.2305 37.1885 35 37.7778 35L42.2223 35C42.8116 35 43.3769 35.2305 43.7936 35.6407C44.2104 36.0509 44.4445 36.6073 44.4445 37.1875L44.4445 50.3125C44.4445 50.8927 44.2104 51.4491 43.7936 51.8593C43.3769 52.2695 42.8116 52.5 42.2223 52.5L37.7778 52.5ZM55.5556 43.75C54.9662 43.75 54.401 43.5195 53.9843 43.1093C53.5675 42.6991 53.3334 42.1427 53.3334 41.5625L53.3334 37.1875C53.3334 36.6073 53.5675 36.0509 53.9843 35.6407C54.401 35.2305 54.9662 35 55.5556 35L60 35C60.5894 35 61.1547 35.2305 61.5714 35.6407C61.9881 36.0509 62.2223 36.6073 62.2223 37.1875L62.2223 41.5625C62.2223 42.1427 61.9881 42.6991 61.5714 43.1093C61.1547 43.5195 60.5894 43.75 60 43.75L55.5556 43.75ZM37.7778 87.5C37.1885 87.5 36.6232 87.2695 36.2065 86.8593C35.7897 86.4491 35.5556 85.8927 35.5556 85.3125L35.5556 80.9375C35.5556 80.3573 35.7897 79.8009 36.2065 79.3907C36.6232 78.9805 37.1885 78.75 37.7778 78.75L42.2223 78.75C42.8116 78.75 43.3769 78.9805 43.7936 79.3907C44.2104 79.8009 44.4445 80.3573 44.4445 80.9375L44.4445 85.3125C44.4445 85.8927 44.2104 86.4491 43.7936 86.8593C43.3769 87.2695 42.8116 87.5 42.2223 87.5L37.7778 87.5ZM37.7778 105C37.1885 105 36.6232 104.77 36.2065 104.359C35.7897 103.949 35.5556 103.393 35.5556 102.812L35.5556 98.4375C35.5556 97.8573 35.7897 97.3009 36.2065 96.8907C36.6232 96.4805 37.1885 96.25 37.7778 96.25L42.2223 96.25C42.8116 96.25 43.3769 96.4805 43.7936 96.8907C44.2104 97.3009 44.4445 97.8573 44.4445 98.4375L44.4445 102.812C44.4445 103.393 44.2104 103.949 43.7936 104.359C43.3769 104.77 42.8116 105 42.2223 105L37.7778 105ZM37.7778 122.5C37.1885 122.5 36.6232 122.27 36.2065 121.859C35.7897 121.449 35.5556 120.893 35.5556 120.312L35.5556 115.937C35.5556 115.357 35.7897 114.801 36.2065 114.391C36.6232 113.98 37.1885 113.75 37.7778 113.75L42.2223 113.75C42.8116 113.75 43.3769 113.98 43.7936 114.391C44.2104 114.801 44.4445 115.357 44.4445 115.937L44.4445 120.312C44.4445 120.893 44.2104 121.449 43.7936 121.859C43.3769 122.27 42.8116 122.5 42.2223 122.5L37.7778 122.5ZM20 26.25C19.4107 26.25 18.8454 26.0195 18.4287 25.6093C18.012 25.1991 17.7778 24.6427 17.7778 24.0625L17.7778 19.6875C17.7778 19.1073 18.012 18.5509 18.4287 18.1407C18.8454 17.7305 19.4107 17.5 20 17.5L24.4445 17.5C25.0339 17.5 25.5991 17.7305 26.0158 18.1407C26.4326 18.5509 26.6667 19.1073 26.6667 19.6875L26.6667 24.0625C26.6667 24.6427 26.4326 25.1991 26.0158 25.6093C25.5991 26.0195 25.0339 26.25 24.4445 26.25L20 26.25ZM20.0001 43.75C19.4107 43.75 18.8454 43.5195 18.4287 43.1093C18.012 42.6991 17.7778 42.1427 17.7778 41.5625L17.7778 37.1875C17.7778 36.6073 18.012 36.0509 18.4287 35.6407C18.8454 35.2305 19.4107 35 20.0001 35L24.4445 35C25.0339 35 25.5991 35.2305 26.0158 35.6407C26.4326 36.0509 26.6667 36.6073 26.6667 37.1875L26.6667 41.5625C26.6667 42.1427 26.4326 42.6991 26.0158 43.1093C25.5991 43.5195 25.0339 43.75 24.4445 43.75L20.0001 43.75ZM20.0001 61.25C19.4107 61.25 18.8454 61.0195 18.4287 60.6093C18.012 60.1991 17.7778 59.6427 17.7778 59.0625L17.7778 54.6875C17.7778 54.1073 18.012 53.5509 18.4287 53.1407C18.8454 52.7305 19.4107 52.5 20.0001 52.5L24.4445 52.5C25.0339 52.5 25.5991 52.7305 26.0158 53.1407C26.4326 53.5509 26.6667 54.1073 26.6667 54.6875L26.6667 59.0625C26.6667 59.6427 26.4326 60.1991 26.0158 60.6093C25.5991 61.0195 25.0339 61.25 24.4445 61.25L20.0001 61.25ZM20.0001 78.75C19.4107 78.75 18.8454 78.5195 18.4287 78.1093C18.012 77.6991 17.7778 77.1427 17.7778 76.5625L17.7778 72.1875C17.7778 71.6073 18.012 71.0509 18.4287 70.6407C18.8454 70.2305 19.4107 70 20.0001 70L24.4445 70C25.0339 70 25.5991 70.2305 26.0158 70.6407C26.4326 71.0509 26.6667 71.6073 26.6667 72.1875L26.6667 76.5625C26.6667 77.1427 26.4326 77.6991 26.0158 78.1093C25.5991 78.5195 25.0339 78.75 24.4445 78.75L20.0001 78.75ZM20.0001 96.25C19.4107 96.25 18.8455 96.0195 18.4287 95.6093C18.012 95.1991 17.7778 94.6427 17.7778 94.0625L17.7778 89.6875C17.7778 89.1073 18.012 88.5509 18.4287 88.1407C18.8455 87.7305 19.4107 87.5 20.0001 87.5L24.4445 87.5C25.0339 87.5 25.5991 87.7305 26.0158 88.1407C26.4326 88.5509 26.6667 89.1073 26.6667 89.6875L26.6667 94.0625C26.6667 94.6427 26.4326 95.1991 26.0158 95.6093C25.5991 96.0195 25.0339 96.25 24.4445 96.25L20.0001 96.25ZM20.0001 122.5C19.4107 122.5 18.8455 122.27 18.4287 121.859C18.012 121.449 17.7778 120.893 17.7778 120.312L17.7778 107.188C17.7778 106.607 18.012 106.051 18.4287 105.641C18.8455 105.23 19.4107 105 20.0001 105L24.4445 105C25.0339 105 25.5991 105.23 26.0158 105.641C26.4326 106.051 26.6667 106.607 26.6667 107.187L26.6667 120.312C26.6667 120.893 26.4326 121.449 26.0158 121.859C25.5991 122.27 25.0339 122.5 24.4445 122.5L20.0001 122.5ZM55.5556 122.5C54.9662 122.5 54.401 122.27 53.9843 121.859C53.5675 121.449 53.3334 120.893 53.3334 120.312L53.3334 115.937C53.3334 115.357 53.5675 114.801 53.9843 114.391C54.401 113.98 54.9662 113.75 55.5556 113.75L60.0001 113.75C60.5894 113.75 61.1547 113.98 61.5714 114.391C61.9881 114.801 62.2223 115.357 62.2223 115.937L62.2223 120.312C62.2223 120.893 61.9881 121.449 61.5714 121.859C61.1547 122.27 60.5894 122.5 60.0001 122.5L55.5556 122.5ZM55.5556 105C54.9662 105 54.401 104.77 53.9843 104.359C53.5675 103.949 53.3334 103.393 53.3334 102.812L53.3334 54.6875C53.3334 54.1073 53.5675 53.5509 53.9843 53.1407C54.401 52.7305 54.9662 52.5 55.5556 52.5L60.0001 52.5C60.5894 52.5 61.1547 52.7305 61.5714 53.1407C61.9881 53.5509 62.2223 54.1073 62.2223 54.6875L62.2223 102.812C62.2223 103.393 61.9881 103.949 61.5714 104.359C61.1547 104.77 60.5894 105 60.0001 105L55.5556 105Z" fill="white"/>
</svg>
