<svg width="150" height="140" viewBox="0 0 150 140" fill="none" xmlns="http://www.w3.org/2000/svg">
<path d="M146.939 45.7143C148.98 45.7143 150 44.6667 150 42.5714C150 40.4762 148.98 39.4286 146.939 39.4286H133.776V33.4286C133.776 28.2857 131.888 23.9524 128.112 20.4286C124.337 16.9048 119.694 15.1429 114.184 15.1429H107.755V2.85714C107.755 0.952381 106.633 0 104.388 0C102.143 0 101.02 0.952381 101.02 2.85714V15.1429H88.1633V2.85714C88.1633 0.952381 87.0408 0 84.7959 0C82.551 0 81.4286 0.952381 81.4286 2.85714V15.1429H68.5714V2.85714C68.5714 0.952381 67.449 0 65.2041 0C62.9592 0 61.8367 0.952381 61.8367 2.85714V15.1429H48.9796V2.85714C48.9796 0.952381 47.8571 0 45.6122 0C43.3673 0 42.2449 0.952381 42.2449 2.85714V15.1429H35.8163C30.3061 15.1429 25.6633 16.9048 21.8878 20.4286C18.1122 23.9524 16.2245 28.2857 16.2245 33.4286V39.4286H3.06122C1.02041 39.4286 0 40.4762 0 42.5714C0 44.6667 1.02041 45.7143 3.06122 45.7143H16.2245V57.7143H3.06122C1.02041 57.7143 0 58.7619 0 60.8571C0 62.9524 1.02041 64 3.06122 64H16.2245V76H3.06122C1.02041 76 0 77.0476 0 79.1429C0 81.2381 1.02041 82.2857 3.06122 82.2857H16.2245V94.2857H3.06122C1.02041 94.2857 0 95.3333 0 97.4286C0 99.5238 1.02041 100.571 3.06122 100.571H16.2245V106.571C16.2245 111.714 18.1122 116.048 21.8878 119.571C25.6633 123.095 30.3061 124.857 35.8163 124.857H42.2449V137.143C42.2449 139.048 43.3673 140 45.6122 140C47.8571 140 48.9796 139.048 48.9796 137.143V124.857H61.8367V137.143C61.8367 139.048 62.9592 140 65.2041 140C67.449 140 68.5714 139.048 68.5714 137.143V124.857H81.4286V137.143C81.4286 139.048 82.551 140 84.7959 140C87.0408 140 88.1633 139.048 88.1633 137.143V124.857H101.02V137.143C101.02 139.048 102.143 140 104.388 140C106.633 140 107.755 139.048 107.755 137.143V124.857H114.184C119.694 124.857 124.337 123.095 128.112 119.571C131.888 116.048 133.776 111.714 133.776 106.571V100.571H146.939C148.98 100.571 150 99.5238 150 97.4286C150 95.3333 148.98 94.2857 146.939 94.2857H133.776V82.2857H146.939C148.98 82.2857 150 81.2381 150 79.1429C150 77.0476 148.98 76 146.939 76H133.776V64H146.939C148.98 64 150 62.9524 150 60.8571C150 58.7619 148.98 57.7143 146.939 57.7143H133.776V45.7143H146.939ZM120.612 106.571C120.612 110.571 118.469 112.571 114.184 112.571H35.8163C31.5306 112.571 29.3878 110.571 29.3878 106.571V33.4286C29.3878 29.4286 31.5306 27.4286 35.8163 27.4286H114.184C118.469 27.4286 120.612 29.4286 120.612 33.4286V106.571ZM101.02 39.4286H48.9796C44.4898 39.4286 42.2449 41.5238 42.2449 45.7143V94.2857C42.2449 98.4762 44.4898 100.571 48.9796 100.571H101.02C105.51 100.571 107.755 98.4762 107.755 94.2857V45.7143C107.755 41.5238 105.51 39.4286 101.02 39.4286ZM94.5918 88.2857H55.4082V51.7143H94.5918V88.2857Z" fill="white"/>
</svg>
