<svg width="130" height="140" viewBox="0 0 130 140" fill="none" xmlns="http://www.w3.org/2000/svg">
<path d="M65 0C59.5938 0 54.1562 0.610573 49.9688 1.75154C45.7813 2.88943 43.0938 4.72423 42.5313 5.86828C33.4688 23.7445 32.875 46.1322 32.8438 61.0573H97.1562C97.125 46.1322 96.5312 23.7445 87.4688 5.86828C86.9062 4.72423 84.2188 2.88943 80.0313 1.75154C75.8438 0.610573 70.4062 0 65 0ZM0 42.5551V48.1057H15V42.5551H0ZM115 42.5551V48.1057H130V42.5551H115ZM7.1875 53.9648V75.1806L16.9375 81.5947C17.4375 79.7445 18.25 78.0176 19.2188 76.4449L12.8125 72.2203V53.9648H7.1875ZM117.188 53.9648V72.2203L110.781 76.4449C111.75 78.0176 112.563 79.7445 113.063 81.5947L122.813 75.1806V53.9648H117.188ZM57.8125 66.6079V70.9251H72.1875V66.6079H57.8125ZM26.2813 76.4758C24.3438 78.6035 22.5625 81.533 22.1563 84.0308C21.6875 86.7137 22.0938 88.6872 25.7188 90.6608H104.281C107.906 88.6872 108.313 86.7137 107.844 84.0308C107.438 81.533 105.656 78.6035 103.719 76.4758H26.2813ZM62.1875 96.2114V106.079L24.3125 115.423L25.6875 120.789L62.1875 111.784V120.573C63.0938 120.388 64.0312 120.264 65 120.264C65.9688 120.264 66.9062 120.388 67.8125 120.573V111.784L104.313 120.789L105.688 115.423L67.8125 106.079V96.2114H62.1875ZM25 125.815C21 125.815 17.8125 128.96 17.8125 132.907C17.8125 136.855 21 140 25 140C29 140 32.1875 136.855 32.1875 132.907C32.1875 128.96 29 125.815 25 125.815ZM65 125.815C61 125.815 57.8125 128.96 57.8125 132.907C57.8125 136.855 61 140 65 140C69 140 72.1875 136.855 72.1875 132.907C72.1875 128.96 69 125.815 65 125.815ZM105 125.815C101 125.815 97.8125 128.96 97.8125 132.907C97.8125 136.855 101 140 105 140C109 140 112.188 136.855 112.188 132.907C112.188 128.96 109 125.815 105 125.815Z" fill="white"/>
</svg>
