<svg width="160" height="140" viewBox="0 0 160 140" fill="none" xmlns="http://www.w3.org/2000/svg">
<path d="M40 70C40 68.0302 40.388 66.0796 41.1418 64.2597C41.8956 62.4399 43.0005 60.7863 44.3934 59.3934C45.7863 58.0005 47.4399 56.8956 49.2597 56.1418C51.0796 55.388 53.0302 55 55 55C56.9698 55 58.9204 55.388 60.7403 56.1418C62.5601 56.8956 64.2137 58.0005 65.6066 59.3934C66.9995 60.7863 68.1044 62.4399 68.8582 64.2597C69.612 66.0796 70 68.0302 70 70C70 73.9782 68.4196 77.7936 65.6066 80.6066C62.7936 83.4196 58.9782 85 55 85C51.0218 85 47.2064 83.4196 44.3934 80.6066C41.5804 77.7936 40 73.9782 40 70ZM115 55C111.022 55 107.206 56.5804 104.393 59.3934C101.58 62.2064 100 66.0218 100 70C100 73.9782 101.58 77.7936 104.393 80.6066C107.206 83.4196 111.022 85 115 85C118.978 85 122.794 83.4196 125.607 80.6066C128.42 77.7936 130 73.9782 130 70C130 66.0218 128.42 62.2064 125.607 59.3934C122.794 56.5804 118.978 55 115 55Z" fill="white"/>
<path d="M0 5C0 3.67392 0.526784 2.40215 1.46447 1.46447C2.40215 0.526784 3.67392 0 5 0H15C16.3261 0 17.5979 0.526784 18.5355 1.46447C19.4732 2.40215 20 3.67392 20 5V30H155C156.326 30 157.598 30.5268 158.536 31.4645C159.473 32.4021 160 33.6739 160 35V105C160 106.326 159.473 107.598 158.536 108.536C157.598 109.473 156.326 110 155 110H20V135C20 136.326 19.4732 137.598 18.5355 138.536C17.5979 139.473 16.3261 140 15 140C13.6739 140 12.4021 139.473 11.4645 138.536C10.5268 137.598 10 136.326 10 135V10H5C3.67392 10 2.40215 9.47322 1.46447 8.53553C0.526784 7.59785 0 6.32608 0 5ZM55 45C48.3696 45 42.0107 47.6339 37.3223 52.3223C32.6339 57.0107 30 63.3696 30 70C30 76.6304 32.6339 82.9893 37.3223 87.6777C42.0107 92.3661 48.3696 95 55 95C61.6304 95 67.9893 92.3661 72.6777 87.6777C77.3661 82.9893 80 76.6304 80 70C80 63.3696 77.3661 57.0107 72.6777 52.3223C67.9893 47.6339 61.6304 45 55 45ZM90 70C90 76.6304 92.6339 82.9893 97.3223 87.6777C102.011 92.3661 108.37 95 115 95C121.63 95 127.989 92.3661 132.678 87.6777C137.366 82.9893 140 76.6304 140 70C140 63.3696 137.366 57.0107 132.678 52.3223C127.989 47.6339 121.63 45 115 45C108.37 45 102.011 47.6339 97.3223 52.3223C92.6339 57.0107 90 63.3696 90 70V70Z" fill="white"/>
<path d="M30 115H65V125C65 126.326 64.4732 127.598 63.5355 128.536C62.5979 129.473 61.3261 130 60 130H35C33.6739 130 32.4021 129.473 31.4645 128.536C30.5268 127.598 30 126.326 30 125V115ZM70 125V115H110V125C110 126.326 109.473 127.598 108.536 128.536C107.598 129.473 106.326 130 105 130H75C73.6739 130 72.4021 129.473 71.4645 128.536C70.5268 127.598 70 126.326 70 125Z" fill="white"/>
</svg>
