<svg width="1920" height="100" viewBox="0 0 1920 100" fill="none" xmlns="http://www.w3.org/2000/svg">
<path d="M0 90H1284.48L1309.39 50H1588.3" stroke="#32E6FF" stroke-width="3"/>
<path d="M1919.15 47.3545C1919.7 47.9618 1920 48.7581 1920 49.5849C1920 50.4116 1919.7 51.208 1919.15 51.8152L1878.03 96.8641C1876.68 98.2027 1874.9 98.9947 1873.03 99.0944L1856.64 99.0944C1855.01 99.0944 1854.58 98.0896 1855.69 96.8641L1896.83 51.7824C1897.37 51.1726 1897.67 50.3772 1897.67 49.552C1897.67 48.7268 1897.37 47.9314 1896.83 47.3216L1855.69 2.23057C1854.58 1.00034 1855.01 0.000187821 1856.64 0.000187894L1873.03 0.000188629C1874.9 0.101957 1876.68 0.893682 1878.03 2.23057L1919.15 47.3545ZM1874.49 47.3545C1875.03 47.9643 1875.33 48.7597 1875.33 49.5849C1875.33 50.41 1875.03 51.2055 1874.49 51.8152L1833.39 96.8687C1832.04 98.2064 1830.26 98.9983 1828.39 99.0991L1812 99.0991C1810.37 99.0991 1809.93 98.0943 1811.05 96.8687L1852.17 51.7871C1852.72 51.1793 1853.02 50.3831 1853.02 49.5567C1853.02 48.7303 1852.72 47.9341 1852.17 47.3263L1811.05 2.23526C1809.93 1.00503 1810.36 0.0048779 1812 0.00487797L1828.39 0.00487871C1830.26 0.107761 1832.03 0.899402 1833.38 2.23526L1874.49 47.3545Z" fill="#32E6FF"/>
<path d="M1831.49 47.3545C1832.04 47.9618 1832.34 48.7581 1832.34 49.5849C1832.34 50.4116 1832.04 51.208 1831.49 51.8152L1790.37 96.8641C1789.02 98.2027 1787.25 98.9947 1785.37 99.0944L1768.98 99.0944C1767.35 99.0944 1766.92 98.0896 1768.04 96.8641L1809.17 51.7824C1809.71 51.1726 1810.01 50.3772 1810.01 49.552C1810.01 48.7268 1809.71 47.9314 1809.17 47.3216L1768.04 2.23057C1766.92 1.00034 1767.35 0.000187821 1768.98 0.000187894L1785.37 0.000188629C1787.25 0.101957 1789.02 0.893682 1790.37 2.23057L1831.49 47.3545ZM1786.83 47.3545C1787.37 47.9643 1787.67 48.7597 1787.67 49.5849C1787.67 50.41 1787.37 51.2055 1786.83 51.8152L1745.73 96.8687C1744.38 98.2064 1742.61 98.9983 1740.74 99.0991L1724.34 99.0991C1722.71 99.0991 1722.28 98.0943 1723.4 96.8687L1764.52 51.7871C1765.06 51.1793 1765.36 50.3831 1765.36 49.5567C1765.36 48.7303 1765.06 47.9341 1764.52 47.3263L1723.39 2.23526C1722.28 1.00503 1722.71 0.0048779 1724.34 0.00487797L1740.73 0.00487871C1742.6 0.107761 1744.37 0.899402 1745.73 2.23526L1786.83 47.3545Z" fill="#32E6FF"/>
<path d="M1737.86 47.3545C1738.41 47.9618 1738.71 48.7581 1738.71 49.5849C1738.71 50.4116 1738.41 51.208 1737.86 51.8152L1696.74 96.8641C1695.39 98.2027 1693.61 98.9947 1691.74 99.0944L1675.35 99.0944C1673.71 99.0944 1673.28 98.0896 1674.4 96.8641L1715.54 51.7824C1716.08 51.1726 1716.38 50.3772 1716.38 49.552C1716.38 48.7268 1716.08 47.9314 1715.54 47.3216L1674.4 2.23057C1673.28 1.00034 1673.71 0.000187821 1675.35 0.000187894L1691.74 0.000188629C1693.61 0.101957 1695.39 0.893682 1696.74 2.23057L1737.86 47.3545ZM1693.19 47.3545C1693.74 47.9643 1694.04 48.7597 1694.04 49.5849C1694.04 50.41 1693.74 51.2055 1693.19 51.8152L1652.1 96.8687C1650.75 98.2064 1648.97 98.9983 1647.1 99.0991L1630.71 99.0991C1629.08 99.0991 1628.64 98.0943 1629.76 96.8687L1670.88 51.7871C1671.43 51.1793 1671.73 50.3831 1671.73 49.5567C1671.73 48.7303 1671.43 47.9341 1670.88 47.3263L1629.76 2.23526C1628.64 1.00503 1629.07 0.0048779 1630.71 0.00487797L1647.1 0.00487871C1648.97 0.107754 1650.74 0.899402 1652.09 2.23526L1693.19 47.3545Z" fill="#32E6FF"/>
<path d="M1651.2 47.3545C1651.74 47.9618 1652.05 48.7581 1652.05 49.5849C1652.05 50.4116 1651.74 51.208 1651.2 51.8152L1610.08 96.8641C1608.73 98.2027 1606.95 98.9947 1605.08 99.0944L1588.69 99.0944C1587.05 99.0944 1586.62 98.0896 1587.74 96.8641L1628.88 51.7824C1629.42 51.1726 1629.72 50.3772 1629.72 49.552C1629.72 48.7268 1629.42 47.9314 1628.88 47.3216L1587.74 2.23057C1586.62 1.00034 1587.05 0.000187821 1588.69 0.000187894L1605.08 0.000188629C1606.95 0.101957 1608.72 0.893682 1610.08 2.23057L1651.2 47.3545ZM1606.53 47.3545C1607.07 47.9643 1607.37 48.7597 1607.37 49.5849C1607.37 50.41 1607.07 51.2055 1606.53 51.8152L1565.43 96.8687C1564.08 98.2064 1562.31 98.9983 1560.44 99.0991L1544.05 99.0991C1542.41 99.0991 1541.98 98.0943 1543.1 96.8687L1584.22 51.7871C1584.77 51.1793 1585.07 50.3831 1585.07 49.5567C1585.07 48.7303 1584.77 47.9341 1584.22 47.3263L1543.09 2.23526C1541.98 1.00503 1542.41 0.0048779 1544.04 0.00487797L1560.43 0.00487871C1562.31 0.107761 1564.08 0.899402 1565.43 2.23526L1606.53 47.3545Z" fill="#32E6FF"/>
</svg>
